<?xml version="1.0" encoding="utf-8"?>
<!-- Generator: Adobe Illustrator 24.0.2, SVG Export Plug-In . SVG Version: 6.00 Build 0)  -->
<svg version="1.1" id="Capa_1" xmlns="http://www.w3.org/2000/svg" xmlns:xlink="http://www.w3.org/1999/xlink" x="0px" y="0px"
	 viewBox="0 0 512 512" style="enable-background:new 0 0 512 512;" xml:space="preserve">
<style type="text/css">
	.st0{fill:#FFB800;}
</style>
<path class="st0" d="M256,512c141.4,0,256-114.6,256-256S397.4,0,256,0S0,114.6,0,256S114.6,512,256,512z M256,128
	c13.3,0,24,10.7,24,24v112c0,13.3-10.7,24-24,24s-24-10.7-24-24V152C232,138.7,242.7,128,256,128z M224,352c0-17.7,14.3-32,32-32
	s32,14.3,32,32s-14.3,32-32,32S224,369.7,224,352z"/>
</svg>
