<?xml version="1.0" encoding="utf-8"?>
<!-- Generator: Adobe Illustrator 27.2.0, SVG Export Plug-In . SVG Version: 6.00 Build 0)  -->
<svg version="1.1" id="Capa_1" xmlns="http://www.w3.org/2000/svg" xmlns:xlink="http://www.w3.org/1999/xlink" x="0px" y="0px"
	 viewBox="0 0 512 512" style="enable-background:new 0 0 512 512;" xml:space="preserve">
<path d="M297.5,206.3c0-20.1-14.2-31.2-39.2-31.2h-45.9v64.9h38.7C281,239.8,297.5,227.8,297.5,206.3z M464.6,194.6
	c-8.7-28.2-9.9-62.7-8.9-89.4c1-27.8-20.7-53.3-49.8-53.3H106.3c-29.2,0-50.8,25.6-49.8,53.3c0.9,26.7-0.3,61.2-8.9,89.4
	C38.8,222.8,24.1,240.7,0,243v26c24.1,2.3,38.8,20.1,47.6,48.4c8.7,28.2,9.9,62.7,8.9,89.4c-1,27.8,20.7,53.3,49.8,53.3h299.5
	c29.2,0,50.8-25.6,49.8-53.3c-0.9-26.7,0.3-61.2,8.9-89.4c8.7-28.2,23.4-46.1,47.5-48.4v-26C488,240.7,473.3,222.8,464.6,194.6z
	 M267.1,364.5h-89.2V147.4h88.7c39.4,0,65.3,21.3,65.3,54.1c0,23-17.4,43.6-39.6,47.2v1.2c30.2,3.3,50.6,24.2,50.6,53.1
	C342.9,341.4,314.4,364.5,267.1,364.5z M258,265.5h-45.6v71.4H260c31.2,0,47.6-12.5,47.6-36C307.7,277.5,290.7,265.5,258,265.5z"/>
</svg>
