<?xml version="1.0" encoding="utf-8"?>
<!-- Generator: Adobe Illustrator 27.2.0, SVG Export Plug-In . SVG Version: 6.00 Build 0)  -->
<svg version="1.1" id="Capa_1" xmlns="http://www.w3.org/2000/svg" xmlns:xlink="http://www.w3.org/1999/xlink" x="0px" y="0px"
	 viewBox="0 0 512 512" style="enable-background:new 0 0 512 512;" xml:space="preserve">
<path d="M512,396.8c-18.6,4.7-30.1,0.2-40.5-15.3L398,279.8l-10.6-14.1l-85.8,116.1c-9.8,14-20.1,20-38.4,15.1l109.9-147.6
	L270.7,116.1c17.6-3.4,29.8-1.7,40.6,14.1l76.2,103l76.8-102.4c9.8-14,20.4-19.3,38.1-14.1l-39.7,52.6l-53.8,70
	c-6.4,8-5.5,13.5,0.4,21.2L512,396.8z M0.1,246.9l9-44.2c24.5-87.5,124.8-123.9,194-69.8c40.4,31.8,50.5,76.8,48.5,127.2H23.7
	c-3.4,90.7,61.9,145.5,145.1,117.5c29.2-9.8,46.4-32.7,55-61.3c4.4-14.3,11.6-16.6,25.1-12.5c-6.9,35.8-22.4,65.7-55.2,84.4
	c-49,28-119,18.9-155.8-20c-21.9-22.6-31-51.2-35-81.8c-0.6-5.1-1.9-9.9-2.9-14.7C0.1,263.5,0.1,255.2,0.1,246.9L0.1,246.9z
	 M24.1,240.8h206c-1.3-65.6-42.2-112.2-98-112.6C70.8,127.8,26.8,173.3,24.1,240.8z"/>
</svg>
