<?xml version="1.0" encoding="utf-8"?>
<!-- Generator: Adobe Illustrator 27.2.0, SVG Export Plug-In . SVG Version: 6.00 Build 0)  -->
<svg version="1.1" id="Capa_1" xmlns="http://www.w3.org/2000/svg" xmlns:xlink="http://www.w3.org/1999/xlink" x="0px" y="0px"
	 viewBox="0 0 512 512" style="enable-background:new 0 0 512 512;" xml:space="preserve">
<g transform="translate(0.000000,512.000000) scale(0.100000,-0.100000)">
	<path d="M2449,5097c-69-26-105-57-346-299l-243-243l294-294l293-293l58,12c181,38,373-77,434-257c21-64,27-172,11-223
		c-7-23,18-50,278-311c280-282,285-287,314-277c16,6,68,8,116,6c106-5,179-36,247-105c62-62,93-118,110-202c45-215-94-418-316-461
		c-137-27-302,41-382,157c-64,93-87,223-57,332l12,44l-259,259c-142,142-261,258-265,258c-5,0-8-308-8-685c0-535,3-687,13-695
		c6-6,33-26,58-45c55-40,114-125,134-192c19-62,19-165,0-227c-68-225-323-339-536-239c-201,94-283,327-185,528
		c30,59,105,139,159,166l37,19v703v702l-38,22c-154,88-233,271-188,433l15,55l-290,290l-289,290l-779-779c-555-555-788-794-808-830
		c-25-46-28-60-28-151s3-105,28-151C82,2344,2355,72,2420,38c38-20,60-23,145-23s107,3,145,23c65,34,2328,2296,2367,2366
		c25,46,28,60,28,151s-3,105-28,151c-40,71-2313,2342-2377,2375C2644,5109,2505,5118,2449,5097z"/>
</g>
</svg>
