<?xml version="1.0" encoding="utf-8"?>
<!-- Generator: Adobe Illustrator 27.2.0, SVG Export Plug-In . SVG Version: 6.00 Build 0)  -->
<svg version="1.1" id="Capa_1" xmlns="http://www.w3.org/2000/svg" xmlns:xlink="http://www.w3.org/1999/xlink" x="0px" y="0px"
	 viewBox="0 0 512 512" style="enable-background:new 0 0 512 512;" xml:space="preserve">
<g transform="translate(0.000000,512.000000) scale(0.100000,-0.100000)">
	<path d="M446.5,5107.4c-192.3-65.3-310.8-166.6-393.2-338.3C6.9,4671.3,0,4640.4,0,4511.6c1.7-120.2,8.6-163.1,46.4-243.8
		c182-393.2,692-487.7,987.4-182c297.1,305.7,195.8,822.5-194,994.2C740.1,5124.6,539.2,5138.4,446.5,5107.4z"/>
	<path d="M3616.4,3496.7c-140.8-22.3-329.7-94.4-449.9-175.2c-92.7-60.1-240.4-207.8-319.4-312.5l-37.8-51.5v237l-1.7,235.3H2301
		h-506.6V1721.2V12.6h530.6h532.3l5.2,1009.7c6.9,892.9,10.3,1020,36.1,1109.3c91,312.5,262.7,441.3,582.1,441.3
		c286.8,0,437.9-116.8,523.7-408.7c25.8-87.6,30.9-228.4,39.5-1121.3l8.6-1021.7h523.7H5100l-1.7,1107.6
		c0,1188.3-8.6,1329.1-94.4,1610.7c-120.2,388.1-364,626.8-748.7,726.4C4097.2,3505.3,3777.8,3522.5,3616.4,3496.7z"/>
	<path d="M68.7,3409.2c-5.2-12-6.9-779.6-5.2-1705.2L68.7,21.2H601h532.3v1700v1700l-528.9,5.2
		C190.6,3429.8,73.8,3426.3,68.7,3409.2z"/>
</g>
</svg>
