<?xml version="1.0" encoding="utf-8"?>
<!-- Generator: Adobe Illustrator 27.2.0, SVG Export Plug-In . SVG Version: 6.00 Build 0)  -->
<svg version="1.1" id="Capa_1" xmlns="http://www.w3.org/2000/svg" xmlns:xlink="http://www.w3.org/1999/xlink" x="0px" y="0px"
	 viewBox="0 0 512 512" style="enable-background:new 0 0 512 512;" xml:space="preserve">
<path d="M256,512c-6.9,0-13.7-1.8-19.7-5.3l-62.6-37.1c-9.3-5.2-4.8-7.1-1.7-8.2c9.9-3.1,19.5-7.4,28.3-12.8
	c1.5-0.7,3.3-0.6,4.7,0.3l48.1,28.6c1.8,1,4,1,5.8,0l187.6-108.3c1.8-1.1,2.9-3,2.9-5.1V147.7c0-2.1-1.1-4.1-2.9-5.2L258.9,34.3
	c-1.8-1-4-1-5.8,0L65.6,142.5c-1.8,1.1-2.9,3-3,5.1v216.5c0,2.1,1.1,4,2.9,5l51.5,29.7c27.9,13.9,45-2.5,45-19V166.1
	c0-3,2.5-5.5,5.5-5.5l0,0h23.8c3,0,5.5,2.5,5.5,5.5l0,0v213.8c0,37.2-20.3,58.5-55.6,58.5c-15.2,0.3-30.2-3.8-43.2-11.7l-49.3-28.3
	C36.5,391.3,29,378.3,29,364.2V147.7c0-14.1,7.5-27.2,19.7-34.3L236.3,5c12.3-6.7,27.1-6.7,39.4,0l187.6,108.3
	c12.2,7.1,19.7,20.1,19.7,34.2v216.6c0,14.1-7.5,27.1-19.7,34.2L275.7,506.7C269.7,510.2,262.9,512,256,512z"/>
<path d="M220.4,291.7c0-3,2.5-5.5,5.5-5.5h24.3c2.7,0,5,1.9,5.4,4.6c3.7,24.7,14.6,37.2,64.2,37.2c39.5,0,56.4-8.9,56.4-29.9
	c0-12.1-4.8-21.1-66.2-27.1c-51.3-5.1-83.1-16.5-83.1-57.5c0-37.9,31.9-60.4,85.4-60.4c60.1,0,89.9,20.9,93.6,65.6
	c0.2,3-2,5.7-5,5.9c-0.1,0-0.2,0-0.3,0h-24.4c-2.5,0-4.7-1.8-5.3-4.2c-5.8-26-20.1-34.3-58.5-34.3c-43.2,0-48.2,15-48.2,26.3
	c0,13.6,5.9,17.6,64.2,25.3c57.7,7.6,85,18.4,85,58.9c0,40.9-34.1,64.3-93.5,64.3C237.6,361,220.4,323.3,220.4,291.7z"/>
</svg>
