<?xml version="1.0" encoding="utf-8"?>
<!-- Generator: Adobe Illustrator 27.2.0, SVG Export Plug-In . SVG Version: 6.00 Build 0)  -->
<svg version="1.1" id="Capa_1" xmlns="http://www.w3.org/2000/svg" xmlns:xlink="http://www.w3.org/1999/xlink" x="0px" y="0px"
	 viewBox="0 0 512 512" style="enable-background:new 0 0 512 512;" xml:space="preserve">
<g transform="translate(0.000000,512.000000) scale(0.100000,-0.100000)">
	<path d="M2435,5106c-134-31-252-104-371-228c-139-145-281-385-370-625c-20-57-42-103-48-103s-47,6-91,14c-443,78-838,19-1053-158
		c-207-169-266-444-162-756c52-159,191-396,339-580c50-63,58-78,48-91c-7-9-41-51-77-94c-153-181-297-425-354-596
		c-143-428,16-766,420-892c220-69,535-74,854-13c41,8,75,13,76,13c1-1,20-54,44-117c165-445,418-757,690-851c93-33,267-33,360,0
		c197,68,378,241,530,505c54,93,143,290,180,399c18,50,28,66,39,63c86-26,361-56,507-56c299,0,541,75,692,215
		c227,211,250,525,65,904c-55,111-198,327-285,430c-35,40-68,81-75,90c-10,13-2,28,48,91c148,184,284,417,339,580
		c159,474-62,839-559,925c-190,32-433,28-656-11c-44-8-85-14-91-14s-28,46-48,103c-159,430-420,749-686,837
		C2657,5118,2517,5125,2435,5106z M2695,4784c152-74,315-298,439-608c40-99,42-106,22-106c-26,0-310-97-453-154l-142-58l-143,58
		c-145,57-428,154-454,154c-19,0-18,4,16,95c134,346,321,584,510,646C2538,4827,2633,4814,2695,4784z M1464,3875c55-8,100-16,102-18
		c1-1-13-72-32-157c-18-85-44-226-56-314l-23-159l-60-45c-119-91-262-208-352-290l-92-82l-64,82c-189,243-285,443-294,614
		c-7,112,11,173,68,238c64,73,204,130,369,150C1096,3902,1365,3890,1464,3875z M4200,3875c164-37,279-118,314-222
		c61-178-41-453-281-761l-64-82l-92,82c-110,99-223,192-332,275l-81,61l-18,133c-16,120-75,428-91,478c-5,17,2,20,62,30
		C3819,3903,4065,3905,4200,3875z M2024,3740c86-28,156-54,156-58s-33-25-72-47c-40-21-128-71-195-111c-68-40-123-71-123-70
		c0,24,70,336,76,336C1867,3790,1939,3767,2024,3740z M3270,3743c10-42,60-280,60-289c0-2-39,21-87,50c-49,29-136,80-195,112
		c-60,32-108,62-108,66c0,6,289,106,311,107C3255,3790,3263,3769,3270,3743z M2718,3451c181-92,389-212,549-316l111-73l9-79
		c4-43,8-249,8-458c-1-293-4-385-14-403c-24-45-417-288-684-423l-138-70l-162,84c-280,145-635,366-659,410c-15,26-19,731-5,860l9,78
		l71,48c133,90,377,232,560,326c100,52,183,95,185,95S2632,3494,2718,3451z M1418,2473l-3-117l-80,70c-44,39-102,92-130,117l-50,46
		l70,64c39,35,97,87,130,115l60,50l3-114C1419,2641,1419,2537,1418,2473z M3888,2661c39-35,72-68,72-72c0-8-222-208-246-222
		c-12-7-14,28-14,224v231l58-48C3789,2747,3848,2697,3888,2661z M1048,2281c111-102,214-188,324-272c73-56,77-61,83-106
		c23-176,51-348,76-472c17-79,29-144,27-146c-2-1-55-11-118-21c-160-25-475-26-575-1c-152,38-246,101-292,195c-25,50-28,68-27,147
		c1,144,64,305,197,505c50,76,195,260,204,260C949,2370,995,2330,1048,2281z M4253,2278c212-264,320-489,321-673c1-79-2-97-27-147
		c-45-92-130-150-277-190c-75-20-107-23-280-23c-142,0-226,6-310,19c-63,10-116,20-118,21c-2,2,10,67,27,146c25,124,53,296,76,471
		c6,44,11,51,68,95c99,75,276,224,357,301c41,39,78,71,82,72C4175,2370,4212,2328,4253,2278z M1955,1615c66-39,148-87,183-105
		c34-18,61-34,59-36c-4-4-329-114-337-114c-4,0-10,12-13,28c-11,47-54,266-61,301l-6,33l28-18C1823,1694,1889,1654,1955,1615z
		 M3325,1640c-28-150-58-280-66-280c-7,0-332,110-336,114c-2,2,43,28,100,59c56,31,149,85,207,120s106,64,107,63
		S3332,1681,3325,1640z M2656,1259c129-54,310-121,419-154c50-16,94-31,98-35c20-18-132-349-223-486c-71-105-180-211-255-249
		c-50-25-72-30-135-30c-67,0-82,4-140,35c-127,69-249,216-356,431c-55,110-128,289-120,296c2,2,82,30,177,63c96,32,233,83,304,114
		c72,30,131,55,133,56C2560,1300,2604,1282,2656,1259z"/>
	<path d="M2409,2996c-193-68-309-233-309-438c1-147,58-266,174-359c81-66,150-91,266-96c79-4,106-1,159,17c150,50,251,151,302,302
		c28,84,23,225-11,310c-28,70-99,160-163,206C2713,3020,2543,3044,2409,2996z"/>
</g>
</svg>
