<?xml version="1.0" encoding="utf-8"?>
<!-- Generator: Adobe Illustrator 27.2.0, SVG Export Plug-In . SVG Version: 6.00 Build 0)  -->
<svg version="1.1" id="Capa_1" xmlns="http://www.w3.org/2000/svg" xmlns:xlink="http://www.w3.org/1999/xlink" x="0px" y="0px"
	 viewBox="0 0 512 512" style="enable-background:new 0 0 512 512;" xml:space="preserve">
<style type="text/css">
	.st0{fill:#E9312A;}
</style>
<g transform="translate(0.000000,512.000000) scale(0.100000,-0.100000)">
	<path class="st0" d="M2380,5114c-19-2-78-9-130-14c-330-36-695-160-990-336c-375-224-680-529-904-904c-175-292-291-632-338-990
		c-16-123-16-497,0-620c82-623,356-1150,820-1581c256-239,575-425,922-539C2034,39,2251,6,2560,6c228,0,329,9,530,50
		c689,141,1304,583,1674,1204c175,292,291,632,338,990c16,123,16,497,0,620c-47,358-163,698-338,990c-224,375-529,680-904,904
		c-289,173-634,291-980,336C2792,5112,2442,5121,2380,5114z M1716,3724c44-15,92-60,447-413l397-395l398,396
		c370,368,401,397,451,413c202,66,382-118,315-321c-15-44-60-92-413-446l-395-398l395-397c353-355,398-403,413-447
		c67-203-113-387-315-321c-50,16-81,45-451,413l-398,396l-397-395c-355-353-403-398-447-413c-203-67-387,113-321,315
		c16,50,45,81,413,452l396,397l-396,398c-368,370-397,401-413,451C1329,3611,1513,3791,1716,3724z"/>
</g>
</svg>
