<?xml version="1.0" encoding="utf-8"?>
<!-- Generator: Adobe Illustrator 27.2.0, SVG Export Plug-In . SVG Version: 6.00 Build 0)  -->
<svg version="1.1" id="Capa_1" xmlns="http://www.w3.org/2000/svg" xmlns:xlink="http://www.w3.org/1999/xlink" x="0px" y="0px"
	 viewBox="0 0 512 512" style="enable-background:new 0 0 512 512;" xml:space="preserve">
<path d="M0,256C72.1,114.6,245.1,58.4,386.5,130.5c54,27.5,98,71.5,125.5,125.5c-72.1,141.4-245.1,197.6-386.5,125.5
	C71.5,354,27.5,310,0,256z M256,360.5c57.7,0,104.5-46.8,104.5-104.5S313.7,151.5,256,151.5S151.5,198.3,151.5,256
	S198.3,360.5,256,360.5z M256,308.2c-28.9,0-52.2-23.4-52.2-52.2s23.4-52.2,52.2-52.2s52.2,23.4,52.2,52.2S284.9,308.2,256,308.2z"
	/>
</svg>
