<?xml version="1.0" encoding="utf-8"?>
<!-- Generator: Adobe Illustrator 27.2.0, SVG Export Plug-In . SVG Version: 6.00 Build 0)  -->
<svg version="1.1" id="Capa_1" xmlns="http://www.w3.org/2000/svg" xmlns:xlink="http://www.w3.org/1999/xlink" x="0px" y="0px"
	 viewBox="0 0 512 512" style="enable-background:new 0 0 512 512;" xml:space="preserve">
<path d="M380,174.3l-124.2,72l-124.2-72l124.2-68.6L380,174.3z M266.8,265.5v131.7l123.8-68.4V193.7L266.8,265.5z M41.2,396.3
	L244.8,512v-89.6l-127.3-70.3L41.2,396.3z M244.8,397.2V265.5L121,193.7v135.1L244.8,397.2z M266.8,0v86.6l135.5,74.8l73.5-42.7
	L266.8,0z M394.2,352.1l-127.3,70.3V512l203.7-115.7L394.2,352.1z M412.6,180.9v156.3l74,42.9V138L412.6,180.9z M109.4,161.4
	l135.4-74.8V0l-209,118.7L109.4,161.4z M99,337.3V180.9L25,138v242.2L99,337.3z"/>
</svg>
