<?xml version="1.0" encoding="utf-8"?>
<!-- Generator: Adobe Illustrator 27.2.0, SVG Export Plug-In . SVG Version: 6.00 Build 0)  -->
<svg version="1.1" id="Layer_1" xmlns="http://www.w3.org/2000/svg" xmlns:xlink="http://www.w3.org/1999/xlink" x="0px" y="0px"
	 viewBox="0 0 512 512" style="enable-background:new 0 0 512 512;" xml:space="preserve">
<g>
	<path d="M258.5,507.2C120.2,507.6,6.7,392.6,9.9,252.1C12.9,118.1,124,7,262.3,8.7c136.6,1.6,249.4,115.4,245.9,255.9
		C504.7,398.1,394.6,508,258.5,507.2z M372.4,386.6c0.7,0,1.3-0.1,2-0.1c1.5-4.7,2.9-9.4,4.4-14.1c9-28.9,18.4-57.6,26.8-86.6
		c5.7-19.8,6.8-40,1.1-60.2c-4-14.1-11.2-26.6-18.7-39c-6.4-10.5-12.6-21.1-14.6-33.6c-2.9-18.6,8.5-37.3,26.4-41.4
		c6.7-1.5,14-0.8,20.6-1.1c-35-42.4-106.9-82.8-191.6-70.4C158.1,50.6,105.6,88.5,68.4,149.7c9.7,0,18.3,0.1,26.8,0
		c14-0.2,28-0.4,42-0.9c9.3-0.3,18.6-1.2,27.9-1.6c4.9-0.2,8.4,2.6,9,6.9c0.6,4.6-2.1,8.1-7.2,9.1c-2.4,0.5-5,0.6-7.4,0.9
		c-5.4,0.6-10.8,1.1-16.8,1.7c25.1,74.6,50,148.5,74.9,222.5c0.6-0.1,1.3-0.1,1.9-0.2c0.6-1.5,1.3-2.9,1.8-4.4
		c13.6-40.5,27.2-81,40.8-121.5c1.6-4.8,2.2-9.4,0.3-14.5c-9.7-25.8-19.2-51.7-28.4-77.7c-1.2-3.5-2.9-4.5-6.4-4.7
		c-6.3-0.4-12.6-1.3-18.8-2.2c-3.6-0.5-5.4-3.1-5.7-6.6c-0.3-3.6,0.9-6.8,4.5-8.1c2.1-0.8,4.6-1,6.8-0.8c34.3,2.8,68.5,3,102.8,0
		c8.6-0.7,12.5,1.6,12.8,7.3c0.3,5.5-3.1,8.2-11.4,9c-6.4,0.6-12.8,1.2-20,1.9C323.1,239.8,347.8,313.2,372.4,386.6z M184.8,464.8
		c-0.3-1.5-0.4-2.2-0.6-2.7c-15.1-41.4-30.1-82.8-45.2-124.1c-19.7-54-39.4-108.1-59.2-162c-0.6-1.6-3.1-3.4-4.9-3.6
		c-4.1-0.6-8.4,0.2-12.5-0.3c-3.8-0.5-5.2,1-6.5,4.3c-11.1,28.3-16.7,57.5-15.4,87.9c3.1,73.3,34.8,131.5,94,174.6
		C149.7,449.7,166.2,458.2,184.8,464.8z M340.2,462.3c-22-60.4-43.7-119.9-65.4-179.4c-0.6,0-1.2,0-1.8,0.1
		c-21.7,62.8-43.4,125.6-65.3,189C253.1,482.5,297,479.3,340.2,462.3z M373.2,445c43.6-25.7,91.9-80.1,102.3-156.6
		c6.3-46-1.2-89.7-22.6-130.9c0.4,20,1.4,40.1-3.5,59.7c-4.1,16.6-9.6,32.8-15.1,49c-16.6,48.8-33.5,97.4-50.2,146.1
		C380.5,422.8,377.1,433.4,373.2,445z"/>
</g>
</svg>
