<?xml version="1.0" encoding="utf-8"?>
<!-- Generator: Adobe Illustrator 24.0.2, SVG Export Plug-In . SVG Version: 6.00 Build 0)  -->
<svg version="1.1" id="Capa_1" xmlns="http://www.w3.org/2000/svg" xmlns:xlink="http://www.w3.org/1999/xlink" x="0px" y="0px"
	 viewBox="0 0 320 320" style="enable-background:new 0 0 320 320;" xml:space="preserve">
<style type="text/css">
	.st0{clip-path:url(#SVGID_2_);}
	.st1{fill:#FF6B00;fill-opacity:10.000000e-02;}
</style>
<g>
	<defs>
		<rect id="SVGID_1_" width="320" height="320"/>
	</defs>
	<clipPath id="SVGID_2_">
		<use xlink:href="#SVGID_1_"  style="overflow:visible;"/>
	</clipPath>
	<g class="st0">
		<path class="st1" d="M46.4,235.8c0.3-1.3,1-2.4,2-3.2c1.1-0.8,2.4-1.1,3.6-1s2.5,0.7,3.4,1.7c0.9,1,1.4,2.2,1.4,3.5
			s-0.5,2.6-1.4,3.5c-0.9,1-2.1,1.6-3.4,1.7c-1.3,0.1-2.6-0.2-3.6-1c-1.1-0.8-1.8-1.9-2-3.2H0v-2.1H46.4z M214.8,286.3
			c0.3-1.3,1-2.4,2-3.2c1-0.8,2.3-1.1,3.6-1c1.3,0.1,2.5,0.7,3.4,1.7c0.9,1,1.4,2.2,1.4,3.5c0,1.3-0.5,2.6-1.4,3.5
			c-0.9,1-2.1,1.6-3.4,1.7c-1.3,0.1-2.6-0.2-3.6-1c-1.1-0.8-1.8-1.9-2-3.2H86.3v-2.1H214.8z M275.7,237.9c-0.3,1.3-1,2.4-2,3.2
			c-1.1,0.8-2.4,1.1-3.6,1c-1.3-0.1-2.5-0.7-3.4-1.7c-0.9-1-1.4-2.2-1.4-3.5s0.5-2.6,1.4-3.5c0.9-1,2.1-1.6,3.4-1.7
			c1.3-0.1,2.6,0.2,3.6,1c1,0.8,1.8,1.9,2,3.2H320v2.1H275.7z M275.7,254.7c-0.3,1.3-1,2.4-2,3.2c-1.1,0.8-2.4,1.1-3.6,1
			c-1.3-0.1-2.5-0.7-3.4-1.7c-0.9-1-1.4-2.2-1.4-3.5c0-1.3,0.5-2.6,1.4-3.5c0.9-1,2.1-1.6,3.4-1.7c1.3-0.1,2.6,0.2,3.6,1
			c1,0.8,1.8,1.9,2,3.2H320v2.1H275.7z M282.2,134.7c0.3-1.3,1-2.4,2-3.2c1.1-0.8,2.4-1.1,3.6-1c1.3,0.1,2.5,0.7,3.4,1.7
			c0.9,1,1.4,2.2,1.4,3.5c0,1.3-0.5,2.6-1.4,3.5c-0.9,1-2.1,1.6-3.4,1.7c-1.3,0.1-2.6-0.2-3.6-1c-1.1-0.8-1.8-1.9-2-3.2h-90.7
			c-0.3,1.3-1,2.4-2,3.2c-1.1,0.8-2.4,1.1-3.6,1c-1.3-0.1-2.5-0.7-3.4-1.7c-0.9-1-1.4-2.2-1.4-3.5c0-1.3,0.5-2.6,1.4-3.5
			c0.9-1,2.1-1.6,3.4-1.7c1.3-0.1,2.6,0.2,3.6,1c1.1,0.8,1.8,1.9,2,3.2H282.2z M12.7,84.2c0.3-1.3,1-2.4,2-3.2
			c1.1-0.8,2.4-1.1,3.6-1c1.3,0.1,2.5,0.7,3.4,1.7s1.4,2.2,1.4,3.5s-0.5,2.6-1.4,3.5s-2.1,1.6-3.4,1.7c-1.3,0.1-2.6-0.2-3.6-1
			c-1.1-0.8-1.8-1.9-2-3.2H0v-2.1H12.7L12.7,84.2z M208.3,120c-0.3,1.3-1,2.4-2,3.2c-1.1,0.8-2.4,1.1-3.6,1
			c-1.3-0.1-2.5-0.7-3.4-1.7c-0.9-1-1.4-2.2-1.4-3.5c0-1.3,0.5-2.6,1.4-3.5c0.9-1,2.1-1.6,3.4-1.7c1.3-0.1,2.6,0.2,3.6,1
			c1.1,0.8,1.8,1.9,2,3.2h90.7c0.3-1.3,1-2.4,2-3.2c1.1-0.8,2.4-1.1,3.6-1c1.3,0.1,2.5,0.7,3.4,1.7c0.9,1,1.4,2.2,1.4,3.5
			c0,1.3-0.5,2.6-1.4,3.5c-0.9,1-2.1,1.6-3.4,1.7c-1.3,0.1-2.6-0.2-3.6-1c-1-0.8-1.8-1.9-2-3.2H208.3z M271.6,12.7
			c1.3,0.3,2.4,1,3.2,2c0.8,1.1,1.1,2.4,1,3.6c-0.1,1.3-0.7,2.5-1.7,3.4c-1,0.9-2.2,1.4-3.5,1.4c-1.3,0-2.6-0.5-3.5-1.4
			c-1-0.9-1.6-2.1-1.7-3.4c-0.1-1.3,0.2-2.6,1-3.6c0.8-1.1,1.9-1.8,3.2-2V0h2.1V12.7z M204.2,231.7c1.3,0.3,2.4,1,3.2,2
			c0.8,1.1,1.1,2.4,1,3.6c-0.1,1.3-0.7,2.5-1.7,3.4c-1,0.9-2.2,1.4-3.5,1.4s-2.6-0.5-3.5-1.4c-1-0.9-1.6-2.1-1.7-3.4
			c-0.1-1.3,0.2-2.6,1-3.6c0.8-1.1,1.9-1.8,3.2-2v-57.1c-1.3-0.3-2.4-1-3.2-2c-0.8-1-1.1-2.4-1-3.6c0.1-1.3,0.7-2.5,1.7-3.4
			c1-0.9,2.2-1.4,3.5-1.4s2.6,0.5,3.5,1.4c1,0.9,1.6,2.1,1.7,3.4c0.1,1.3-0.2,2.6-1,3.6c-0.8,1.1-1.9,1.8-3.2,2V231.7L204.2,231.7z
			 M254.7,23.1v61.2H320v2.1h-67.4V23.1c-1.3-0.3-2.4-1-3.2-2c-0.8-1.1-1.1-2.4-1-3.6c0.1-1.3,0.7-2.5,1.7-3.4
			c1-0.9,2.2-1.4,3.5-1.4c1.3,0,2.6,0.5,3.5,1.4c1,0.9,1.6,2.1,1.7,3.4c0.1,1.3-0.2,2.6-1,3.6C257.1,22.1,256,22.8,254.7,23.1
			L254.7,23.1z M271.6,39.9v27.5H320v2.1h-50.5V39.9c-1.3-0.3-2.4-1-3.2-2c-0.8-1.1-1.1-2.4-1-3.6c0.1-1.3,0.7-2.5,1.7-3.4
			c1-0.9,2.2-1.4,3.5-1.4c1.3,0,2.6,0.5,3.5,1.4c1,0.9,1.6,2.1,1.7,3.4s-0.2,2.6-1,3.6C274,38.9,272.9,39.6,271.6,39.9L271.6,39.9z
			 M136.8,140.9v78h16.8v12.7c1.3,0.3,2.4,1,3.2,2c0.8,1.1,1.1,2.4,1,3.6c-0.1,1.3-0.7,2.5-1.7,3.4c-1,0.9-2.2,1.4-3.5,1.4
			c-1.3,0-2.6-0.5-3.5-1.4c-1-0.9-1.6-2.1-1.7-3.4c-0.1-1.3,0.2-2.6,1-3.6c0.8-1.1,1.9-1.8,3.2-2v-10.6h-16.8v-80.1
			c-1.3-0.3-2.4-1-3.2-2c-0.8-1.1-1.1-2.4-1-3.6c0.1-1.3,0.7-2.5,1.7-3.4c1-0.9,2.2-1.4,3.5-1.4c1.3,0,2.6,0.5,3.5,1.4
			c1,0.9,1.6,2.1,1.7,3.4c0.1,1.3-0.2,2.6-1,3.6C139.3,140,138.1,140.7,136.8,140.9z M130.6,117.9c0.3-1.3,1-2.4,2-3.2
			c1.1-0.8,2.4-1.1,3.6-1c1.3,0.1,2.5,0.7,3.4,1.7c0.9,1,1.4,2.2,1.4,3.5c0,1.3-0.5,2.6-1.4,3.5c-0.9,1-2.1,1.6-3.4,1.7
			c-1.3,0.1-2.6-0.2-3.6-1c-1.1-0.8-1.8-1.9-2-3.2H120v50.5H90.4c-0.3,1.3-1,2.4-2,3.2s-2.4,1.1-3.6,1c-1.3-0.1-2.5-0.7-3.4-1.7
			c-0.9-1-1.4-2.2-1.4-3.5c0-1.3,0.5-2.6,1.4-3.5c0.9-1,2.1-1.6,3.4-1.7c1.3-0.1,2.6,0.2,3.6,1s1.8,1.9,2,3.2h27.5v-50.5H130.6z
			 M124.1,254.7c-0.3,1.3-1,2.4-2,3.2c-1.1,0.8-2.4,1.1-3.6,1c-1.3-0.1-2.5-0.7-3.4-1.7c-0.9-1-1.4-2.2-1.4-3.5
			c0-1.3,0.5-2.6,1.4-3.5c0.9-1,2.1-1.6,3.4-1.7c1.3-0.1,2.6,0.2,3.6,1c1,0.8,1.8,1.9,2,3.2h61.2v-78c-1.3-0.3-2.4-1-3.2-2
			c-0.8-1-1.1-2.4-1-3.6c0.1-1.3,0.7-2.5,1.7-3.4c1-0.9,2.2-1.4,3.5-1.4s2.6,0.5,3.5,1.4c1,0.9,1.6,2.1,1.7,3.4
			c0.1,1.3-0.2,2.6-1,3.6c-0.8,1.1-1.9,1.8-3.2,2v80.1H124.1L124.1,254.7z M107.3,187.4c-0.3,1.3-1,2.4-2,3.2
			c-1.1,0.8-2.4,1.1-3.6,1c-1.3-0.1-2.5-0.7-3.4-1.7c-0.9-1-1.4-2.2-1.4-3.5s0.5-2.6,1.4-3.5c0.9-1,2.1-1.6,3.4-1.7
			c1.3-0.1,2.6,0.2,3.6,1c1.1,0.8,1.8,1.9,2,3.2H120v50.5h10.6c0.3-1.3,1-2.4,2-3.2c1.1-0.8,2.4-1.1,3.6-1c1.3,0.1,2.5,0.7,3.4,1.7
			c0.9,1,1.4,2.2,1.4,3.5s-0.5,2.6-1.4,3.5c-0.9,1-2.1,1.6-3.4,1.7c-1.3,0.1-2.6-0.2-3.6-1c-1.1-0.8-1.8-1.9-2-3.2h-12.7v-50.5
			H107.3L107.3,187.4z M69.5,299.1c1.3,0.3,2.4,1,3.2,2c0.8,1.1,1.1,2.4,1,3.6c-0.1,1.3-0.7,2.5-1.7,3.4c-1,0.9-2.2,1.4-3.5,1.4
			c-1.3,0-2.6-0.5-3.5-1.4c-1-0.9-1.6-2.1-1.7-3.4c-0.1-1.3,0.2-2.6,1-3.6c0.8-1,1.9-1.8,3.2-2v-10.6H52.6V320h-2.1v-33.7h18.9
			V299.1z M248.5,185.3c0.3-1.3,1-2.4,2-3.2c1.1-0.8,2.4-1.1,3.6-1c1.3,0.1,2.5,0.7,3.4,1.7c0.9,1,1.4,2.2,1.4,3.5s-0.5,2.6-1.4,3.5
			c-0.9,1-2.1,1.6-3.4,1.7c-1.3,0.1-2.6-0.2-3.6-1c-1.1-0.8-1.8-1.9-2-3.2h-10.6v98.9h50.5V320h-2.1v-31.6h-50.5V185.3H248.5z
			 M275.7,153.7c-0.3,1.3-1,2.4-2,3.2c-1.1,0.8-2.4,1.1-3.6,1c-1.3-0.1-2.5-0.7-3.4-1.7c-0.9-1-1.4-2.2-1.4-3.5
			c0-1.3,0.5-2.6,1.4-3.5c0.9-1,2.1-1.6,3.4-1.7c1.3-0.1,2.6,0.2,3.6,1c1,0.8,1.8,1.9,2,3.2h12.7V198c1.3,0.3,2.4,1,3.2,2
			c0.8,1.1,1.1,2.4,1,3.6c-0.1,1.3-0.7,2.5-1.7,3.4c-1,0.9-2.2,1.4-3.5,1.4c-1.3,0-2.6-0.5-3.5-1.4c-1-0.9-1.6-2.1-1.7-3.4
			c-0.1-1.3,0.2-2.6,1-3.6c0.8-1.1,1.9-1.8,3.2-2v-44.3H275.7z M208.3,254.7c-0.3,1.3-1,2.4-2,3.2c-1.1,0.8-2.4,1.1-3.6,1
			c-1.3-0.1-2.5-0.7-3.4-1.7c-0.9-1-1.4-2.2-1.4-3.5c0-1.3,0.5-2.6,1.4-3.5c0.9-1,2.1-1.6,3.4-1.7c1.3-0.1,2.6,0.2,3.6,1
			c1.1,0.8,1.8,1.9,2,3.2h10.6v-84.2h16.8v-14.7h-44.3c-0.3,1.3-1,2.4-2,3.2c-1.1,0.8-2.4,1.1-3.6,1c-1.3-0.1-2.5-0.7-3.4-1.7
			c-0.9-1-1.4-2.2-1.4-3.5c0-1.3,0.5-2.6,1.4-3.5c0.9-1,2.1-1.6,3.4-1.7c1.3-0.1,2.6,0.2,3.6,1c1.1,0.8,1.8,1.9,2,3.2h46.4v18.9
			h-16.8v84.2H208.3L208.3,254.7z M299.1,33.7c0.3-1.3,1-2.4,2-3.2c1.1-0.8,2.4-1.1,3.6-1c1.3,0.1,2.5,0.7,3.4,1.7
			c0.9,1,1.4,2.2,1.4,3.5c0,1.3-0.5,2.6-1.4,3.5c-0.9,1-2.1,1.6-3.4,1.7c-1.3,0.1-2.6-0.2-3.6-1c-1-0.8-1.8-1.9-2-3.2h-12.7V0h2.1
			v33.7H299.1L299.1,33.7z M103.2,107.3v46.4H56.7c-0.3,1.3-1,2.4-2,3.2c-1.1,0.8-2.4,1.1-3.6,1c-1.3-0.1-2.5-0.7-3.4-1.7
			c-0.9-1-1.4-2.2-1.4-3.5c0-1.3,0.5-2.6,1.4-3.5c0.9-1,2.1-1.6,3.4-1.7c1.3-0.1,2.6,0.2,3.6,1c1.1,0.8,1.8,1.9,2,3.2h44.3v-44.3
			c-1.3-0.3-2.4-1-3.2-2c-0.8-1.1-1.1-2.4-1-3.6c0.1-1.3,0.7-2.5,1.7-3.4c1-0.9,2.2-1.4,3.5-1.4c1.3,0,2.6,0.5,3.5,1.4
			c1,0.9,1.6,2.1,1.7,3.4c0.1,1.3-0.2,2.6-1,3.6C105.6,106.3,104.4,107,103.2,107.3L103.2,107.3z M56.7,35.8c-0.3,1.3-1,2.4-2,3.2
			c-1.1,0.8-2.4,1.1-3.6,1c-1.3-0.1-2.5-0.7-3.4-1.7c-0.9-1-1.4-2.2-1.4-3.5c0-1.3,0.5-2.6,1.4-3.5c0.9-1,2.1-1.6,3.4-1.7
			c1.3-0.1,2.6,0.2,3.6,1c1.1,0.8,1.8,1.9,2,3.2h27.5V0h2.1v35.8H56.7z M120,39.9v29.6H86.3v67.4H73.6c-0.3,1.3-1,2.4-2,3.2
			c-1.1,0.8-2.4,1.1-3.6,1c-1.3-0.1-2.5-0.7-3.4-1.7c-0.9-1-1.4-2.2-1.4-3.5c0-1.3,0.5-2.6,1.4-3.5c0.9-1,2.1-1.6,3.4-1.7
			c1.3-0.1,2.6,0.2,3.6,1c1.1,0.8,1.8,1.9,2,3.2h10.6V67.4h33.7V39.9c-1.3-0.3-2.4-1-3.2-2c-0.8-1.1-1.1-2.4-1-3.6
			c0.1-1.3,0.7-2.5,1.7-3.4c1-0.9,2.2-1.4,3.5-1.4c1.3,0,2.6,0.5,3.5,1.4c1,0.9,1.6,2.1,1.7,3.4c0.1,1.3-0.2,2.6-1,3.6
			C122.4,38.9,121.3,39.6,120,39.9z M107.3,86.3c-0.3,1.3-1,2.4-2,3.2c-1.1,0.8-2.4,1.1-3.6,1c-1.3-0.1-2.5-0.7-3.4-1.7
			c-0.9-1-1.4-2.2-1.4-3.5s0.5-2.6,1.4-3.5c0.9-1,2.1-1.6,3.4-1.7c1.3-0.1,2.6,0.2,3.6,1c1.1,0.8,1.8,1.9,2,3.2h27.5V39.9
			c-1.3-0.3-2.4-1-3.2-2c-0.8-1.1-1.1-2.4-1-3.6c0.1-1.3,0.7-2.5,1.7-3.4c1-0.9,2.2-1.4,3.5-1.4c1.3,0,2.6,0.5,3.5,1.4
			c1,0.9,1.6,2.1,1.7,3.4s-0.2,2.6-1,3.6c-0.8,1.1-1.9,1.8-3.2,2v46.4H107.3z M124.1,18.9c-0.3,1.3-1,2.4-2,3.2
			c-1.1,0.8-2.4,1.1-3.6,1c-1.3-0.1-2.5-0.7-3.4-1.7c-0.9-1-1.4-2.2-1.4-3.5c0-1.3,0.5-2.6,1.4-3.5c0.9-1,2.1-1.6,3.4-1.7
			c1.3-0.1,2.6,0.2,3.6,1c1,0.8,1.8,1.9,2,3.2h29.6v46.4c1.3,0.3,2.4,1,3.2,2c0.8,1.1,1.1,2.4,1,3.6s-0.7,2.5-1.7,3.4
			c-1,0.9-2.2,1.4-3.5,1.4c-1.3,0-2.6-0.5-3.5-1.4c-1-0.9-1.6-2.1-1.7-3.4s0.2-2.6,1-3.6c0.8-1.1,1.9-1.8,3.2-2V18.9H124.1z
			 M231.7,303.2c0.3-1.3,1-2.4,2-3.2c1.1-0.8,2.4-1.1,3.6-1c1.3,0.1,2.5,0.7,3.4,1.7c0.9,1,1.4,2.2,1.4,3.5c0,1.3-0.5,2.6-1.4,3.5
			c-0.9,1-2.1,1.6-3.4,1.7c-1.3,0.1-2.6-0.2-3.6-1c-1.1-0.8-1.8-1.9-2-3.2H103.2V320h-2.1v-16.8H231.7L231.7,303.2z M254.7,157.8
			v10.6h16.8v35.8h-16.8v65.3h50.5V320h-2.1v-48.4h-50.5v-69.5h16.8v-31.6h-16.8v-12.7c-1.3-0.3-2.4-1-3.2-2c-0.8-1.1-1.1-2.4-1-3.6
			c0.1-1.3,0.7-2.5,1.7-3.4c1-0.9,2.2-1.4,3.5-1.4c1.3,0,2.6,0.5,3.5,1.4c1,0.9,1.6,2.1,1.7,3.4c0.1,1.3-0.2,2.6-1,3.6
			S256,157.5,254.7,157.8L254.7,157.8z M56.7,18.9c-0.3,1.3-1,2.4-2,3.2c-1.1,0.8-2.4,1.1-3.6,1c-1.3-0.1-2.5-0.7-3.4-1.7
			c-0.9-1-1.4-2.2-1.4-3.5c0-1.3,0.5-2.6,1.4-3.5s2.1-1.6,3.4-1.7c1.3-0.1,2.6,0.2,3.6,1c1.1,0.8,1.8,1.9,2,3.2h10.6V2.1H50.5V0
			h18.9v18.9H56.7z M174.6,52.6c-0.3,1.3-1,2.4-2,3.2c-1,0.8-2.4,1.1-3.6,1c-1.3-0.1-2.5-0.7-3.4-1.7c-0.9-1-1.4-2.2-1.4-3.5
			c0-1.3,0.5-2.6,1.4-3.5c0.9-1,2.1-1.6,3.4-1.7c1.3-0.1,2.6,0.2,3.6,1c1.1,0.8,1.8,1.9,2,3.2h27.5V0h52.6v2.1h-50.5v50.5H174.6z
			 M124.1,2.1c-0.1,0.7-0.4,1.3-0.8,1.9c-0.4,0.6-0.9,1.1-1.5,1.4c-0.6,0.4-1.2,0.6-1.9,0.8c-0.7,0.1-1.4,0.1-2.1,0
			c-0.7-0.1-1.3-0.4-1.9-0.8s-1.1-0.9-1.4-1.5c-0.8-1.2-1-2.6-0.8-4h2.2c-0.2,0.5-0.2,1-0.1,1.5c0.1,0.5,0.3,1,0.6,1.4
			c0.3,0.4,0.7,0.7,1.1,1c0.4,0.2,0.9,0.4,1.4,0.4c0.5,0,1-0.1,1.5-0.4c0.4-0.2,0.8-0.6,1.1-1c0.3-0.4,0.5-0.9,0.6-1.4
			c0.1-0.5,0-1-0.1-1.5h65.4v35.8h-18.9V23.1c-1.3-0.3-2.4-1-3.2-2c-0.8-1.1-1.1-2.4-1-3.6c0.1-1.3,0.7-2.5,1.7-3.4
			c1-0.9,2.2-1.4,3.5-1.4c1.3,0,2.6,0.5,3.5,1.4c1,0.9,1.6,2.1,1.7,3.4c0.1,1.3-0.2,2.6-1,3.6c-0.8,1.1-1.9,1.8-3.2,2v10.6h14.7V2.1
			H124.1z M124.1,103.2c-0.3,1.3-1,2.4-2,3.2c-1.1,0.8-2.4,1.1-3.6,1c-1.3-0.1-2.5-0.7-3.4-1.7c-0.9-1-1.4-2.2-1.4-3.5
			c0-1.3,0.5-2.6,1.4-3.5c0.9-1,2.1-1.6,3.4-1.7c1.3-0.1,2.6,0.2,3.6,1c1,0.8,1.8,1.9,2,3.2h20.1l33.7-33.7h41.1V23.1
			c-1.3-0.3-2.4-1-3.2-2c-0.8-1.1-1.1-2.4-1-3.6c0.1-1.3,0.7-2.5,1.7-3.4c1-0.9,2.2-1.4,3.5-1.4s2.6,0.5,3.5,1.4
			c1,0.9,1.6,2.1,1.7,3.4c0.1,1.3-0.2,2.6-1,3.6c-0.8,1.1-1.9,1.8-3.2,2v46.4h-42.3l-33.7,33.7H124.1z M153.7,198
			c1.3,0.3,2.4,1,3.2,2c0.8,1.1,1.1,2.4,1,3.6c-0.1,1.3-0.7,2.5-1.7,3.4c-1,0.9-2.2,1.4-3.5,1.4c-1.3,0-2.6-0.5-3.5-1.4
			c-1-0.9-1.6-2.1-1.7-3.4c-0.1-1.3,0.2-2.6,1-3.6c0.8-1.1,1.9-1.8,3.2-2v-80.5l33.3-33.3h51V23.1c-1.3-0.3-2.4-1-3.2-2
			c-0.8-1.1-1.1-2.4-1-3.6c0.1-1.3,0.7-2.5,1.7-3.4c1-0.9,2.2-1.4,3.5-1.4s2.6,0.5,3.5,1.4c1,0.9,1.6,2.1,1.7,3.4
			c0.1,1.3-0.2,2.6-1,3.6c-0.8,1.1-1.9,1.8-3.2,2v63.3h-52.2l-32,32V198z M170.5,231.7c1.3,0.3,2.4,1,3.2,2c0.8,1.1,1.1,2.4,1,3.6
			c-0.1,1.3-0.7,2.5-1.7,3.4c-1,0.9-2.2,1.4-3.5,1.4c-1.3,0-2.6-0.5-3.5-1.4c-1-0.9-1.6-2.1-1.7-3.4c-0.1-1.3,0.2-2.6,1-3.6
			c0.8-1.1,1.9-1.8,3.2-2V126.9l25.9-25.9h121.6c0.2-1,0.7-1.9,1.4-2.7c0.7-0.7,1.7-1.2,2.7-1.4v2.2c-0.6,0.2-1.2,0.6-1.5,1.2
			c-0.4,0.5-0.6,1.2-0.6,1.8c0,0.7,0.2,1.3,0.6,1.8c0.4,0.5,0.9,0.9,1.5,1.2v2.2c-1-0.2-1.9-0.7-2.7-1.4c-0.7-0.7-1.2-1.7-1.4-2.7
			H195.2l-24.6,24.6V231.7z M18.9,164.3c1.3,0.3,2.4,1,3.2,2c0.8,1.1,1.1,2.4,1,3.6c-0.1,1.3-0.7,2.5-1.7,3.4
			c-1,0.9-2.2,1.4-3.5,1.4c-1.3,0-2.6-0.5-3.5-1.4c-1-0.9-1.6-2.1-1.7-3.4c-0.1-1.3,0.2-2.6,1-3.6c0.8-1.1,1.9-1.8,3.2-2v-3.7
			l50.5-50.5V50.5h33.7V0h2.1v52.6H69.5V111l-50.5,50.5V164.3z M52.6,56.7v45.8L2.1,153.1v65.9h27.5c0.3-1.3,1-2.4,2-3.2
			c1.1-0.8,2.4-1.1,3.6-1c1.3,0.1,2.5,0.7,3.4,1.7c0.9,1,1.4,2.2,1.4,3.5s-0.5,2.6-1.4,3.5c-0.9,1-2.1,1.6-3.4,1.7
			c-1.3,0.1-2.6-0.2-3.6-1c-1.1-0.8-1.8-1.9-2-3.2H0v-68.9l50.5-50.5V56.7c-1.3-0.3-2.4-1-3.2-2c-0.8-1.1-1.1-2.4-1-3.6
			c0.1-1.3,0.7-2.5,1.7-3.4c1-0.9,2.2-1.4,3.5-1.4c1.3,0,2.6,0.5,3.5,1.4s1.6,2.1,1.7,3.4c0.1,1.3-0.2,2.6-1,3.6
			C55,55.7,53.9,56.5,52.6,56.7L52.6,56.7z M35.8,73.6v20.5L0,129.9v-3l33.7-33.7V73.6c-1.3-0.3-2.4-1-3.2-2c-0.8-1.1-1.1-2.4-1-3.6
			c0.1-1.3,0.7-2.5,1.7-3.4c1-0.9,2.2-1.4,3.5-1.4c1.3,0,2.6,0.5,3.5,1.4c1,0.9,1.6,2.1,1.7,3.4c0.1,1.3-0.2,2.6-1,3.6
			C38.2,72.6,37.1,73.3,35.8,73.6z M12.7,33.7c0.3-1.3,1-2.4,2-3.2c1.1-0.8,2.4-1.1,3.6-1c1.3,0.1,2.5,0.7,3.4,1.7
			c0.9,1,1.4,2.2,1.4,3.5c0,1.3-0.5,2.6-1.4,3.5c-0.9,1-2.1,1.6-3.4,1.7c-1.3,0.1-2.6-0.2-3.6-1c-1.1-0.8-1.8-1.9-2-3.2H9.9L0,45.7
			v-3l9-9.1H12.7z M292.5,52.6c-0.3,1.3-1,2.4-2,3.2c-1.1,0.8-2.4,1.1-3.6,1c-1.3-0.1-2.5-0.7-3.4-1.7c-0.9-1-1.4-2.2-1.4-3.5
			c0-1.3,0.5-2.6,1.4-3.5c0.9-1,2.1-1.6,3.4-1.7c1.3-0.1,2.6,0.2,3.6,1c1,0.8,1.8,1.9,2,3.2h19.7l7.8-7.8v3l-6.9,6.9H292.5
			L292.5,52.6z M275.7,221.1c-0.3,1.3-1,2.4-2,3.2c-1.1,0.8-2.4,1.1-3.6,1c-1.3-0.1-2.5-0.7-3.4-1.7c-0.9-1-1.4-2.2-1.4-3.5
			s0.5-2.6,1.4-3.5c0.9-1,2.1-1.6,3.4-1.7c1.3-0.1,2.6,0.2,3.6,1c1,0.8,1.8,1.9,2,3.2h27.5v-75.2l16.8-16.8v3l-14.7,14.7v76.4H275.7
			L275.7,221.1z M56.7,254.7c-0.3,1.3-1,2.4-2,3.2c-1.1,0.8-2.4,1.1-3.6,1c-1.3-0.1-2.5-0.7-3.4-1.7c-0.9-1-1.4-2.2-1.4-3.5
			c0-1.3,0.5-2.6,1.4-3.5c0.9-1,2.1-1.6,3.4-1.7c1.3-0.1,2.6,0.2,3.6,1c1.1,0.8,1.8,1.9,2,3.2h10.6v-23.8l-24.6-24.6H23.1
			c-0.3,1.3-1,2.4-2,3.2c-1.1,0.8-2.4,1.1-3.6,1c-1.3-0.1-2.5-0.7-3.4-1.7c-0.9-1-1.4-2.2-1.4-3.5s0.5-2.6,1.4-3.5
			c0.9-1,2.1-1.6,3.4-1.7c1.3-0.1,2.6,0.2,3.6,1c1.1,0.8,1.8,1.9,2,3.2h20.5L69.5,228v26.7H56.7L56.7,254.7z M214.8,269.5
			c0.3-1.3,1-2.4,2-3.2c1-0.8,2.3-1.1,3.6-1c1.3,0.1,2.5,0.7,3.4,1.7c0.9,1,1.4,2.2,1.4,3.5c0,1.3-0.5,2.6-1.4,3.5
			c-0.9,1-2.1,1.6-3.4,1.7s-2.6-0.2-3.6-1c-1.1-0.8-1.8-1.9-2-3.2H101.1V212l-41.5-41.5H39.9c-0.3,1.3-1,2.4-2,3.2
			c-1.1,0.8-2.4,1.1-3.6,1c-1.3-0.1-2.5-0.7-3.4-1.7c-0.9-1-1.4-2.2-1.4-3.5c0-1.3,0.5-2.6,1.4-3.5c0.9-1,2.1-1.6,3.4-1.7
			s2.6,0.2,3.6,1c1.1,0.8,1.8,1.9,2,3.2h20.5l42.7,42.7v58.3H214.8L214.8,269.5z M56.7,271.6c-0.3,1.3-1,2.4-2,3.2
			c-1.1,0.8-2.4,1.1-3.6,1c-1.3-0.1-2.5-0.7-3.4-1.7c-0.9-1-1.4-2.2-1.4-3.5c0-1.3,0.5-2.6,1.4-3.5c0.9-1,2.1-1.6,3.4-1.7
			c1.3-0.1,2.6,0.2,3.6,1c1.1,0.8,1.8,1.9,2,3.2h27.5v-49l-33.1-33.1H23.1c-0.3,1.3-1,2.4-2,3.2c-1.1,0.8-2.4,1.1-3.6,1
			c-1.3-0.1-2.5-0.7-3.4-1.7c-0.9-1-1.4-2.2-1.4-3.5s0.5-2.6,1.4-3.5c0.9-1,2.1-1.6,3.4-1.7c1.3-0.1,2.6,0.2,3.6,1
			c1.1,0.8,1.8,1.9,2,3.2h29l34.3,34.3v52H56.7L56.7,271.6z M35.8,41.9v1.7L9.9,69.5H0v-2.1h9l24.6-24.6V0h2.1V41.9z M2.1,315.9
			c1,0.2,1.9,0.7,2.7,1.4c0.7,0.7,1.2,1.7,1.4,2.7H4c-0.1-0.4-0.4-0.8-0.6-1.1c-0.3-0.3-0.6-0.6-1-0.7c-0.4-0.2-0.8-0.3-1.2-0.3
			c-0.4,0-0.8,0-1.2,0.2v-48.6h18.9V320h-2.1v-48.4H2.1V315.9z M35.8,253.7V320h-2.1v-65.3H0v-2.1h35.8V253.7z M17.9,18.9H0v-2.1
			h16.8V0h2.1v18.9H17.9z M305.3,16.8H320v2.1h-16.8V0h2.1V16.8z M271.6,304.2V320h-2.1v-14.7h-14.7V320h-2.1v-16.8h18.9V304.2z
			 M0,96.9c0.8-0.2,1.6-0.1,2.3,0.1c0.8,0.2,1.5,0.5,2.1,1c0.6,0.5,1.1,1.1,1.4,1.8c0.3,0.7,0.5,1.5,0.5,2.3c0,0.8-0.2,1.6-0.5,2.3
			c-0.3,0.7-0.8,1.3-1.4,1.8c-0.6,0.5-1.3,0.8-2.1,1c-0.8,0.2-1.5,0.2-2.3,0v-2.2c0.5,0.2,1,0.2,1.5,0.1c0.5-0.1,1-0.3,1.4-0.6
			s0.7-0.7,1-1.1c0.2-0.4,0.4-0.9,0.4-1.5c0-0.5-0.1-1-0.4-1.5c-0.2-0.4-0.6-0.8-1-1.1C2.5,99.2,2,99,1.5,99c-0.5-0.1-1,0-1.5,0.1
			V96.9z M84.2,286.3h2.1V320h-2.1V286.3z M124.1,320h-2.2c-0.2-0.6-0.6-1.2-1.2-1.5c-0.5-0.4-1.2-0.6-1.8-0.6s-1.3,0.2-1.8,0.6
			c-0.5,0.4-0.9,0.9-1.2,1.5h-2.2c0.2-1.2,0.9-2.3,1.8-3c0.9-0.8,2.1-1.2,3.3-1.2c1.2,0,2.4,0.4,3.3,1.2
			C123.2,317.7,123.9,318.8,124.1,320L124.1,320z M6.2,0c0.2,0.9,0.1,1.7-0.1,2.6C5.8,3.4,5.4,4.1,4.8,4.8C4.1,5.4,3.4,5.8,2.6,6.1
			C1.7,6.3,0.9,6.4,0,6.2V4c0.6,0.2,1.2,0.2,1.8,0.1C2.3,4,2.9,3.7,3.3,3.3s0.7-1,0.8-1.5C4.3,1.2,4.2,0.6,4,0H6.2z M315.9,0h2.2
			c-0.1,0.4-0.2,0.8-0.2,1.2c0,0.4,0.1,0.8,0.3,1.2c0.2,0.4,0.4,0.7,0.7,1c0.3,0.3,0.7,0.5,1.1,0.6v2.2c-0.7-0.1-1.3-0.4-1.9-0.8
			C317.5,5,317,4.5,316.7,4c-0.4-0.6-0.6-1.2-0.8-1.9C315.8,1.4,315.8,0.7,315.9,0L315.9,0z M320,315.9v2.2
			c-0.4,0.2-0.8,0.4-1.2,0.7c-0.3,0.3-0.6,0.7-0.7,1.2h-2.2c0.2-1,0.7-1.9,1.4-2.7C318.1,316.6,319,316.1,320,315.9L320,315.9z
			 M102.1,105.3c0.4,0,0.8-0.1,1.2-0.2c0.4-0.2,0.7-0.4,1-0.7s0.5-0.6,0.7-1c0.2-0.4,0.2-0.8,0.2-1.2c0-0.4-0.1-0.8-0.2-1.2
			c-0.2-0.4-0.4-0.7-0.7-1c-0.3-0.3-0.6-0.5-1-0.7c-0.4-0.2-0.8-0.2-1.2-0.2c-0.8,0-1.6,0.3-2.2,0.9c-0.6,0.6-0.9,1.4-0.9,2.2
			c0,0.8,0.3,1.6,0.9,2.2C100.5,104.9,101.3,105.3,102.1,105.3L102.1,105.3z M102.1,88.4c0.8,0,1.6-0.3,2.2-0.9
			c0.6-0.6,0.9-1.4,0.9-2.2c0-0.8-0.3-1.6-0.9-2.2c-0.6-0.6-1.4-0.9-2.2-0.9c-0.8,0-1.6,0.3-2.2,0.9c-0.6,0.6-0.9,1.4-0.9,2.2
			c0,0.8,0.3,1.6,0.9,2.2C100.5,88.1,101.3,88.4,102.1,88.4L102.1,88.4z M118.9,105.3c0.4,0,0.8-0.1,1.2-0.2c0.4-0.2,0.7-0.4,1-0.7
			c0.3-0.3,0.5-0.6,0.7-1c0.2-0.4,0.2-0.8,0.2-1.2c0-0.4-0.1-0.8-0.2-1.2c-0.2-0.4-0.4-0.7-0.7-1c-0.3-0.3-0.6-0.5-1-0.7
			c-0.4-0.2-0.8-0.2-1.2-0.2c-0.8,0-1.6,0.3-2.2,0.9c-0.6,0.6-0.9,1.4-0.9,2.2c0,0.8,0.3,1.6,0.9,2.2
			C117.3,104.9,118.1,105.3,118.9,105.3L118.9,105.3z M135.8,122.1c0.8,0,1.6-0.3,2.2-0.9c0.6-0.6,0.9-1.4,0.9-2.2
			c0-0.8-0.3-1.6-0.9-2.2c-0.6-0.6-1.4-0.9-2.2-0.9c-0.8,0-1.6,0.3-2.2,0.9c-0.6,0.6-0.9,1.4-0.9,2.2c0,0.8,0.3,1.6,0.9,2.2
			C134.1,121.8,135,122.1,135.8,122.1z M135.8,138.9c0.8,0,1.6-0.3,2.2-0.9c0.6-0.6,0.9-1.4,0.9-2.2c0-0.8-0.3-1.6-0.9-2.2
			c-0.6-0.6-1.4-0.9-2.2-0.9c-0.8,0-1.6,0.3-2.2,0.9c-0.6,0.6-0.9,1.4-0.9,2.2c0,0.8,0.3,1.6,0.9,2.2
			C134.1,138.6,135,138.9,135.8,138.9z M85.3,172.6c0.8,0,1.6-0.3,2.2-0.9c0.6-0.6,0.9-1.4,0.9-2.2c0-0.8-0.3-1.6-0.9-2.2
			c-0.6-0.6-1.4-0.9-2.2-0.9c-0.8,0-1.6,0.3-2.2,0.9c-0.6,0.6-0.9,1.4-0.9,2.2c0,0.8,0.3,1.6,0.9,2.2
			C83.6,172.3,84.4,172.6,85.3,172.6L85.3,172.6z M102.1,189.5c0.8,0,1.6-0.3,2.2-0.9c0.6-0.6,0.9-1.4,0.9-2.2
			c0-0.8-0.3-1.6-0.9-2.2c-0.6-0.6-1.4-0.9-2.2-0.9c-0.8,0-1.6,0.3-2.2,0.9c-0.6,0.6-0.9,1.4-0.9,2.2c0,0.8,0.3,1.6,0.9,2.2
			C100.5,189.1,101.3,189.5,102.1,189.5L102.1,189.5z M135.8,240c0.8,0,1.6-0.3,2.2-0.9c0.6-0.6,0.9-1.4,0.9-2.2
			c0-0.8-0.3-1.6-0.9-2.2c-0.6-0.6-1.4-0.9-2.2-0.9c-0.8,0-1.6,0.3-2.2,0.9c-0.6,0.6-0.9,1.4-0.9,2.2c0,0.8,0.3,1.6,0.9,2.2
			C134.1,239.7,135,240,135.8,240z M118.9,256.8c0.8,0,1.6-0.3,2.2-0.9c0.6-0.6,0.9-1.4,0.9-2.2c0-0.8-0.3-1.6-0.9-2.2
			c-0.6-0.6-1.4-0.9-2.2-0.9c-0.8,0-1.6,0.3-2.2,0.9c-0.6,0.6-0.9,1.4-0.9,2.2c0,0.8,0.3,1.6,0.9,2.2
			C117.3,256.5,118.1,256.8,118.9,256.8L118.9,256.8z M152.6,240c0.8,0,1.6-0.3,2.2-0.9c0.6-0.6,0.9-1.4,0.9-2.2
			c0-0.8-0.3-1.6-0.9-2.2c-0.6-0.6-1.4-0.9-2.2-0.9c-0.8,0-1.6,0.3-2.2,0.9c-0.6,0.6-0.9,1.4-0.9,2.2c0,0.8,0.3,1.6,0.9,2.2
			C151,239.7,151.8,240,152.6,240z M152.6,206.3c0.8,0,1.6-0.3,2.2-0.9c0.6-0.6,0.9-1.4,0.9-2.2c0-0.8-0.3-1.6-0.9-2.2
			c-0.6-0.6-1.4-0.9-2.2-0.9c-0.8,0-1.6,0.3-2.2,0.9c-0.6,0.6-0.9,1.4-0.9,2.2c0,0.8,0.3,1.6,0.9,2.2
			C151,206,151.8,206.3,152.6,206.3z M169.5,240c0.8,0,1.6-0.3,2.2-0.9c0.6-0.6,0.9-1.4,0.9-2.2c0-0.8-0.3-1.6-0.9-2.2
			c-0.6-0.6-1.4-0.9-2.2-0.9c-0.8,0-1.6,0.3-2.2,0.9c-0.6,0.6-0.9,1.4-0.9,2.2c0,0.8,0.3,1.6,0.9,2.2
			C167.8,239.7,168.6,240,169.5,240z M203.2,256.8c0.8,0,1.6-0.3,2.2-0.9c0.6-0.6,0.9-1.4,0.9-2.2c0-0.8-0.3-1.6-0.9-2.2
			c-0.6-0.6-1.4-0.9-2.2-0.9c-0.8,0-1.6,0.3-2.2,0.9c-0.6,0.6-0.9,1.4-0.9,2.2c0,0.8,0.3,1.6,0.9,2.2
			C201.5,256.5,202.3,256.8,203.2,256.8z M203.2,240c0.8,0,1.6-0.3,2.2-0.9c0.6-0.6,0.9-1.4,0.9-2.2c0-0.8-0.3-1.6-0.9-2.2
			c-0.6-0.6-1.4-0.9-2.2-0.9c-0.8,0-1.6,0.3-2.2,0.9c-0.6,0.6-0.9,1.4-0.9,2.2c0,0.8,0.3,1.6,0.9,2.2
			C201.5,239.7,202.3,240,203.2,240z M186.3,172.6c0.8,0,1.6-0.3,2.2-0.9c0.6-0.6,0.9-1.4,0.9-2.2c0-0.8-0.3-1.6-0.9-2.2
			c-0.6-0.6-1.4-0.9-2.2-0.9c-0.8,0-1.6,0.3-2.2,0.9c-0.6,0.6-0.9,1.4-0.9,2.2c0,0.8,0.3,1.6,0.9,2.2
			C184.7,172.3,185.5,172.6,186.3,172.6z M203.2,172.6c0.8,0,1.6-0.3,2.2-0.9c0.6-0.6,0.9-1.4,0.9-2.2c0-0.8-0.3-1.6-0.9-2.2
			c-0.6-0.6-1.4-0.9-2.2-0.9c-0.8,0-1.6,0.3-2.2,0.9c-0.6,0.6-0.9,1.4-0.9,2.2c0,0.8,0.3,1.6,0.9,2.2
			C201.5,172.3,202.3,172.6,203.2,172.6z M220,273.7c0.8,0,1.6-0.3,2.2-0.9c0.6-0.6,0.9-1.4,0.9-2.2c0-0.8-0.3-1.6-0.9-2.2
			c-0.6-0.6-1.4-0.9-2.2-0.9s-1.6,0.3-2.2,0.9c-0.6,0.6-0.9,1.4-0.9,2.2c0,0.8,0.3,1.6,0.9,2.2C218.4,273.4,219.2,273.7,220,273.7
			L220,273.7z M220,290.5c0.8,0,1.6-0.3,2.2-0.9c0.6-0.6,0.9-1.4,0.9-2.2c0-0.8-0.3-1.6-0.9-2.2c-0.6-0.6-1.4-0.9-2.2-0.9
			s-1.6,0.3-2.2,0.9c-0.6,0.6-0.9,1.4-0.9,2.2c0,0.8,0.3,1.6,0.9,2.2C218.4,290.2,219.2,290.5,220,290.5L220,290.5z M236.8,307.4
			c0.8,0,1.6-0.3,2.2-0.9c0.6-0.6,0.9-1.4,0.9-2.2c0-0.8-0.3-1.6-0.9-2.2c-0.6-0.6-1.4-0.9-2.2-0.9c-0.8,0-1.6,0.3-2.2,0.9
			c-0.6,0.6-0.9,1.4-0.9,2.2c0,0.8,0.3,1.6,0.9,2.2C235.2,307,236,307.4,236.8,307.4z M253.7,155.8c0.8,0,1.6-0.3,2.2-0.9
			c0.6-0.6,0.9-1.4,0.9-2.2c0-0.8-0.3-1.6-0.9-2.2c-0.6-0.6-1.4-0.9-2.2-0.9c-0.8,0-1.6,0.3-2.2,0.9c-0.6,0.6-0.9,1.4-0.9,2.2
			c0,0.8,0.3,1.6,0.9,2.2C252,155.5,252.8,155.8,253.7,155.8z M253.7,189.5c0.8,0,1.6-0.3,2.2-0.9c0.6-0.6,0.9-1.4,0.9-2.2
			c0-0.8-0.3-1.6-0.9-2.2c-0.6-0.6-1.4-0.9-2.2-0.9c-0.8,0-1.6,0.3-2.2,0.9c-0.6,0.6-0.9,1.4-0.9,2.2c0,0.8,0.3,1.6,0.9,2.2
			C252,189.1,252.8,189.5,253.7,189.5z M270.5,155.8c0.8,0,1.6-0.3,2.2-0.9c0.6-0.6,0.9-1.4,0.9-2.2c0-0.8-0.3-1.6-0.9-2.2
			c-0.6-0.6-1.4-0.9-2.2-0.9c-0.8,0-1.6,0.3-2.2,0.9c-0.6,0.6-0.9,1.4-0.9,2.2c0,0.8,0.3,1.6,0.9,2.2
			C268.9,155.5,269.7,155.8,270.5,155.8z M287.4,138.9c0.8,0,1.6-0.3,2.2-0.9c0.6-0.6,0.9-1.4,0.9-2.2c0-0.8-0.3-1.6-0.9-2.2
			c-0.6-0.6-1.4-0.9-2.2-0.9c-0.8,0-1.6,0.3-2.2,0.9c-0.6,0.6-0.9,1.4-0.9,2.2c0,0.8,0.3,1.6,0.9,2.2
			C285.7,138.6,286.5,138.9,287.4,138.9z M186.3,138.9c0.8,0,1.6-0.3,2.2-0.9c0.6-0.6,0.9-1.4,0.9-2.2c0-0.8-0.3-1.6-0.9-2.2
			c-0.6-0.6-1.4-0.9-2.2-0.9c-0.8,0-1.6,0.3-2.2,0.9c-0.6,0.6-0.9,1.4-0.9,2.2c0,0.8,0.3,1.6,0.9,2.2
			C184.7,138.6,185.5,138.9,186.3,138.9z M186.3,155.8c0.8,0,1.6-0.3,2.2-0.9c0.6-0.6,0.9-1.4,0.9-2.2c0-0.8-0.3-1.6-0.9-2.2
			c-0.6-0.6-1.4-0.9-2.2-0.9c-0.8,0-1.6,0.3-2.2,0.9c-0.6,0.6-0.9,1.4-0.9,2.2c0,0.8,0.3,1.6,0.9,2.2
			C184.7,155.5,185.5,155.8,186.3,155.8z M203.2,122.1c0.8,0,1.6-0.3,2.2-0.9c0.6-0.6,0.9-1.4,0.9-2.2c0-0.8-0.3-1.6-0.9-2.2
			c-0.6-0.6-1.4-0.9-2.2-0.9c-0.8,0-1.6,0.3-2.2,0.9c-0.6,0.6-0.9,1.4-0.9,2.2c0,0.8,0.3,1.6,0.9,2.2
			C201.5,121.8,202.3,122.1,203.2,122.1z M304.2,122.1c0.8,0,1.6-0.3,2.2-0.9c0.6-0.6,0.9-1.4,0.9-2.2c0-0.8-0.3-1.6-0.9-2.2
			c-0.6-0.6-1.4-0.9-2.2-0.9c-0.8,0-1.6,0.3-2.2,0.9c-0.6,0.6-0.9,1.4-0.9,2.2c0,0.8,0.3,1.6,0.9,2.2
			C302.6,121.8,303.4,122.1,304.2,122.1z M287.4,54.7c0.8,0,1.6-0.3,2.2-0.9c0.6-0.6,0.9-1.4,0.9-2.2c0-0.8-0.3-1.6-0.9-2.2
			c-0.6-0.6-1.4-0.9-2.2-0.9c-0.8,0-1.6,0.3-2.2,0.9c-0.6,0.6-0.9,1.4-0.9,2.2c0,0.8,0.3,1.6,0.9,2.2
			C285.7,54.4,286.5,54.7,287.4,54.7z M304.2,37.9c0.8,0,1.6-0.3,2.2-0.9c0.6-0.6,0.9-1.4,0.9-2.2c0-0.8-0.3-1.6-0.9-2.2
			c-0.6-0.6-1.4-0.9-2.2-0.9c-0.8,0-1.6,0.3-2.2,0.9c-0.6,0.6-0.9,1.4-0.9,2.2c0,0.8,0.3,1.6,0.9,2.2
			C302.6,37.6,303.4,37.9,304.2,37.9z M270.5,37.9c0.8,0,1.6-0.3,2.2-0.9c0.6-0.6,0.9-1.4,0.9-2.2c0-0.8-0.3-1.6-0.9-2.2
			c-0.6-0.6-1.4-0.9-2.2-0.9c-0.8,0-1.6,0.3-2.2,0.9c-0.6,0.6-0.9,1.4-0.9,2.2c0,0.8,0.3,1.6,0.9,2.2
			C268.9,37.6,269.7,37.9,270.5,37.9z M270.5,21.1c0.8,0,1.6-0.3,2.2-0.9c0.6-0.6,0.9-1.4,0.9-2.2c0-0.8-0.3-1.6-0.9-2.2
			c-0.6-0.6-1.4-0.9-2.2-0.9c-0.8,0-1.6,0.3-2.2,0.9c-0.6,0.6-0.9,1.4-0.9,2.2c0,0.8,0.3,1.6,0.9,2.2
			C268.9,20.7,269.7,21.1,270.5,21.1z M253.7,21.1c0.8,0,1.6-0.3,2.2-0.9c0.6-0.6,0.9-1.4,0.9-2.2c0-0.8-0.3-1.6-0.9-2.2
			c-0.6-0.6-1.4-0.9-2.2-0.9c-0.8,0-1.6,0.3-2.2,0.9c-0.6,0.6-0.9,1.4-0.9,2.2c0,0.8,0.3,1.6,0.9,2.2
			C252,20.7,252.8,21.1,253.7,21.1z M236.8,21.1c0.8,0,1.6-0.3,2.2-0.9c0.6-0.6,0.9-1.4,0.9-2.2c0-0.8-0.3-1.6-0.9-2.2
			c-0.6-0.6-1.4-0.9-2.2-0.9c-0.8,0-1.6,0.3-2.2,0.9c-0.6,0.6-0.9,1.4-0.9,2.2c0,0.8,0.3,1.6,0.9,2.2
			C235.2,20.7,236,21.1,236.8,21.1z M220,21.1c0.8,0,1.6-0.3,2.2-0.9c0.6-0.6,0.9-1.4,0.9-2.2c0-0.8-0.3-1.6-0.9-2.2
			c-0.6-0.6-1.4-0.9-2.2-0.9s-1.6,0.3-2.2,0.9c-0.6,0.6-0.9,1.4-0.9,2.2c0,0.8,0.3,1.6,0.9,2.2C218.4,20.7,219.2,21.1,220,21.1
			L220,21.1z M51.6,37.9c0.8,0,1.6-0.3,2.2-0.9c0.6-0.6,0.9-1.4,0.9-2.2c0-0.8-0.3-1.6-0.9-2.2c-0.6-0.6-1.4-0.9-2.2-0.9
			c-0.8,0-1.6,0.3-2.2,0.9c-0.6,0.6-0.9,1.4-0.9,2.2c0,0.8,0.3,1.6,0.9,2.2C49.9,37.6,50.7,37.9,51.6,37.9z M17.9,37.9
			c0.8,0,1.6-0.3,2.2-0.9c0.6-0.6,0.9-1.4,0.9-2.2c0-0.8-0.3-1.6-0.9-2.2c-0.6-0.6-1.4-0.9-2.2-0.9c-0.8,0-1.6,0.3-2.2,0.9
			c-0.6,0.6-0.9,1.4-0.9,2.2c0,0.8,0.3,1.6,0.9,2.2C16.3,37.6,17.1,37.9,17.9,37.9z M51.6,54.7c0.8,0,1.6-0.3,2.2-0.9
			c0.6-0.6,0.9-1.4,0.9-2.2c0-0.8-0.3-1.6-0.9-2.2c-0.6-0.6-1.4-0.9-2.2-0.9c-0.8,0-1.6,0.3-2.2,0.9s-0.9,1.4-0.9,2.2
			c0,0.8,0.3,1.6,0.9,2.2C49.9,54.4,50.7,54.7,51.6,54.7z M34.7,71.6c0.8,0,1.6-0.3,2.2-0.9c0.6-0.6,0.9-1.4,0.9-2.2
			c0-0.8-0.3-1.6-0.9-2.2c-0.6-0.6-1.4-0.9-2.2-0.9c-0.8,0-1.6,0.3-2.2,0.9c-0.6,0.6-0.9,1.4-0.9,2.2c0,0.8,0.3,1.6,0.9,2.2
			C33.1,71.2,33.9,71.6,34.7,71.6z M51.6,21.1c0.8,0,1.6-0.3,2.2-0.9c0.6-0.6,0.9-1.4,0.9-2.2c0-0.8-0.3-1.6-0.9-2.2
			c-0.6-0.6-1.4-0.9-2.2-0.9c-0.8,0-1.6,0.3-2.2,0.9c-0.6,0.6-0.9,1.4-0.9,2.2c0,0.8,0.3,1.6,0.9,2.2C49.9,20.7,50.7,21.1,51.6,21.1
			z M51.6,273.7c0.8,0,1.6-0.3,2.2-0.9c0.6-0.6,0.9-1.4,0.9-2.2c0-0.8-0.3-1.6-0.9-2.2c-0.6-0.6-1.4-0.9-2.2-0.9
			c-0.8,0-1.6,0.3-2.2,0.9c-0.6,0.6-0.9,1.4-0.9,2.2c0,0.8,0.3,1.6,0.9,2.2C49.9,273.4,50.7,273.7,51.6,273.7z M68.4,307.4
			c0.8,0,1.6-0.3,2.2-0.9c0.6-0.6,0.9-1.4,0.9-2.2c0-0.8-0.3-1.6-0.9-2.2c-0.6-0.6-1.4-0.9-2.2-0.9c-0.8,0-1.6,0.3-2.2,0.9
			c-0.6,0.6-0.9,1.4-0.9,2.2c0,0.8,0.3,1.6,0.9,2.2C66.8,307,67.6,307.4,68.4,307.4z M51.6,240c0.8,0,1.6-0.3,2.2-0.9
			c0.6-0.6,0.9-1.4,0.9-2.2c0-0.8-0.3-1.6-0.9-2.2c-0.6-0.6-1.4-0.9-2.2-0.9c-0.8,0-1.6,0.3-2.2,0.9c-0.6,0.6-0.9,1.4-0.9,2.2
			c0,0.8,0.3,1.6,0.9,2.2C49.9,239.7,50.7,240,51.6,240z M51.6,256.8c0.8,0,1.6-0.3,2.2-0.9c0.6-0.6,0.9-1.4,0.9-2.2
			c0-0.8-0.3-1.6-0.9-2.2c-0.6-0.6-1.4-0.9-2.2-0.9c-0.8,0-1.6,0.3-2.2,0.9c-0.6,0.6-0.9,1.4-0.9,2.2c0,0.8,0.3,1.6,0.9,2.2
			C49.9,256.5,50.7,256.8,51.6,256.8z M34.7,223.2c0.8,0,1.6-0.3,2.2-0.9c0.6-0.6,0.9-1.4,0.9-2.2s-0.3-1.6-0.9-2.2
			c-0.6-0.6-1.4-0.9-2.2-0.9c-0.8,0-1.6,0.3-2.2,0.9c-0.6,0.6-0.9,1.4-0.9,2.2s0.3,1.6,0.9,2.2C33.1,222.8,33.9,223.2,34.7,223.2
			L34.7,223.2z M118.9,37.9c0.8,0,1.6-0.3,2.2-0.9c0.6-0.6,0.9-1.4,0.9-2.2c0-0.8-0.3-1.6-0.9-2.2c-0.6-0.6-1.4-0.9-2.2-0.9
			c-0.8,0-1.6,0.3-2.2,0.9c-0.6,0.6-0.9,1.4-0.9,2.2c0,0.8,0.3,1.6,0.9,2.2C117.3,37.6,118.1,37.9,118.9,37.9L118.9,37.9z
			 M135.8,37.9c0.8,0,1.6-0.3,2.2-0.9c0.6-0.6,0.9-1.4,0.9-2.2c0-0.8-0.3-1.6-0.9-2.2c-0.6-0.6-1.4-0.9-2.2-0.9
			c-0.8,0-1.6,0.3-2.2,0.9c-0.6,0.6-0.9,1.4-0.9,2.2c0,0.8,0.3,1.6,0.9,2.2C134.1,37.6,135,37.9,135.8,37.9z M118.9,21.1
			c0.8,0,1.6-0.3,2.2-0.9c0.6-0.6,0.9-1.4,0.9-2.2c0-0.8-0.3-1.6-0.9-2.2c-0.6-0.6-1.4-0.9-2.2-0.9c-0.8,0-1.6,0.3-2.2,0.9
			c-0.6,0.6-0.9,1.4-0.9,2.2c0,0.8,0.3,1.6,0.9,2.2C117.3,20.7,118.1,21.1,118.9,21.1L118.9,21.1z M152.6,71.6
			c0.8,0,1.6-0.3,2.2-0.9c0.6-0.6,0.9-1.4,0.9-2.2c0-0.8-0.3-1.6-0.9-2.2c-0.6-0.6-1.4-0.9-2.2-0.9c-0.8,0-1.6,0.3-2.2,0.9
			c-0.6,0.6-0.9,1.4-0.9,2.2c0,0.8,0.3,1.6,0.9,2.2C151,71.2,151.8,71.6,152.6,71.6z M169.5,54.7c0.8,0,1.6-0.3,2.2-0.9
			c0.6-0.6,0.9-1.4,0.9-2.2c0-0.8-0.3-1.6-0.9-2.2c-0.6-0.6-1.4-0.9-2.2-0.9c-0.8,0-1.6,0.3-2.2,0.9c-0.6,0.6-0.9,1.4-0.9,2.2
			c0,0.8,0.3,1.6,0.9,2.2C167.8,54.4,168.6,54.7,169.5,54.7z M169.5,21.1c0.8,0,1.6-0.3,2.2-0.9c0.6-0.6,0.9-1.4,0.9-2.2
			c0-0.8-0.3-1.6-0.9-2.2c-0.6-0.6-1.4-0.9-2.2-0.9c-0.8,0-1.6,0.3-2.2,0.9c-0.6,0.6-0.9,1.4-0.9,2.2c0,0.8,0.3,1.6,0.9,2.2
			C167.8,20.7,168.6,21.1,169.5,21.1z M287.4,206.3c0.8,0,1.6-0.3,2.2-0.9c0.6-0.6,0.9-1.4,0.9-2.2c0-0.8-0.3-1.6-0.9-2.2
			c-0.6-0.6-1.4-0.9-2.2-0.9c-0.8,0-1.6,0.3-2.2,0.9c-0.6,0.6-0.9,1.4-0.9,2.2c0,0.8,0.3,1.6,0.9,2.2
			C285.7,206,286.5,206.3,287.4,206.3z M270.5,223.2c0.8,0,1.6-0.3,2.2-0.9c0.6-0.6,0.9-1.4,0.9-2.2s-0.3-1.6-0.9-2.2
			c-0.6-0.6-1.4-0.9-2.2-0.9c-0.8,0-1.6,0.3-2.2,0.9c-0.6,0.6-0.9,1.4-0.9,2.2s0.3,1.6,0.9,2.2C268.9,222.8,269.7,223.2,270.5,223.2
			L270.5,223.2z M270.5,240c0.8,0,1.6-0.3,2.2-0.9c0.6-0.6,0.9-1.4,0.9-2.2c0-0.8-0.3-1.6-0.9-2.2c-0.6-0.6-1.4-0.9-2.2-0.9
			c-0.8,0-1.6,0.3-2.2,0.9c-0.6,0.6-0.9,1.4-0.9,2.2c0,0.8,0.3,1.6,0.9,2.2C268.9,239.7,269.7,240,270.5,240z M270.5,256.8
			c0.8,0,1.6-0.3,2.2-0.9c0.6-0.6,0.9-1.4,0.9-2.2c0-0.8-0.3-1.6-0.9-2.2c-0.6-0.6-1.4-0.9-2.2-0.9c-0.8,0-1.6,0.3-2.2,0.9
			c-0.6,0.6-0.9,1.4-0.9,2.2c0,0.8,0.3,1.6,0.9,2.2C268.9,256.5,269.7,256.8,270.5,256.8z M17.9,189.5c0.8,0,1.6-0.3,2.2-0.9
			c0.6-0.6,0.9-1.4,0.9-2.2c0-0.8-0.3-1.6-0.9-2.2c-0.6-0.6-1.4-0.9-2.2-0.9c-0.8,0-1.6,0.3-2.2,0.9c-0.6,0.6-0.9,1.4-0.9,2.2
			c0,0.8,0.3,1.6,0.9,2.2C16.3,189.1,17.1,189.5,17.9,189.5z M17.9,206.3c0.8,0,1.6-0.3,2.2-0.9c0.6-0.6,0.9-1.4,0.9-2.2
			c0-0.8-0.3-1.6-0.9-2.2c-0.6-0.6-1.4-0.9-2.2-0.9c-0.8,0-1.6,0.3-2.2,0.9c-0.6,0.6-0.9,1.4-0.9,2.2c0,0.8,0.3,1.6,0.9,2.2
			C16.3,206,17.1,206.3,17.9,206.3z M17.9,172.6c0.8,0,1.6-0.3,2.2-0.9c0.6-0.6,0.9-1.4,0.9-2.2c0-0.8-0.3-1.6-0.9-2.2
			c-0.6-0.6-1.4-0.9-2.2-0.9c-0.8,0-1.6,0.3-2.2,0.9c-0.6,0.6-0.9,1.4-0.9,2.2c0,0.8,0.3,1.6,0.9,2.2
			C16.3,172.3,17.1,172.6,17.9,172.6z M34.7,172.6c0.8,0,1.6-0.3,2.2-0.9c0.6-0.6,0.9-1.4,0.9-2.2c0-0.8-0.3-1.6-0.9-2.2
			c-0.6-0.6-1.4-0.9-2.2-0.9c-0.8,0-1.6,0.3-2.2,0.9c-0.6,0.6-0.9,1.4-0.9,2.2c0,0.8,0.3,1.6,0.9,2.2
			C33.1,172.3,33.9,172.6,34.7,172.6z M17.9,88.4c0.8,0,1.6-0.3,2.2-0.9c0.6-0.6,0.9-1.4,0.9-2.2c0-0.8-0.3-1.6-0.9-2.2
			c-0.6-0.6-1.4-0.9-2.2-0.9c-0.8,0-1.6,0.3-2.2,0.9c-0.6,0.6-0.9,1.4-0.9,2.2c0,0.8,0.3,1.6,0.9,2.2C16.3,88.1,17.1,88.4,17.9,88.4
			z M51.6,155.8c0.8,0,1.6-0.3,2.2-0.9c0.6-0.6,0.9-1.4,0.9-2.2c0-0.8-0.3-1.6-0.9-2.2c-0.6-0.6-1.4-0.9-2.2-0.9
			c-0.8,0-1.6,0.3-2.2,0.9c-0.6,0.6-0.9,1.4-0.9,2.2c0,0.8,0.3,1.6,0.9,2.2C49.9,155.5,50.7,155.8,51.6,155.8z M68.4,138.9
			c0.8,0,1.6-0.3,2.2-0.9c0.6-0.6,0.9-1.4,0.9-2.2c0-0.8-0.3-1.6-0.9-2.2c-0.6-0.6-1.4-0.9-2.2-0.9c-0.8,0-1.6,0.3-2.2,0.9
			c-0.6,0.6-0.9,1.4-0.9,2.2c0,0.8,0.3,1.6,0.9,2.2C66.8,138.6,67.6,138.9,68.4,138.9z"/>
	</g>
</g>
</svg>
