<?xml version="1.0" encoding="utf-8"?>
<!-- Generator: Adobe Illustrator 27.2.0, SVG Export Plug-In . SVG Version: 6.00 Build 0)  -->
<svg version="1.1" id="Capa_1" xmlns="http://www.w3.org/2000/svg" xmlns:xlink="http://www.w3.org/1999/xlink" x="0px" y="0px"
	 viewBox="0 0 1000 138.2" style="enable-background:new 0 0 1000 138.2;" xml:space="preserve">
<style type="text/css">
	.st0{fill:#FFFFFF;}
</style>
<path class="st0" d="M371.1,21.5v11.1c0,3-2.4,5.4-5.4,5.4H327v22.1h27.6c3,0,5.4,2.4,5.4,5.4v11.1c0,3-2.4,5.4-5.4,5.4H327v22h38.6
	c3,0,5.4,2.4,5.4,5.4v11.2c0,3-2.4,5.4-5.4,5.4H327h-16.7c-3,0-5.4-2.4-5.4-5.4V21.5c0-3,2.4-5.4,5.4-5.4h55.3
	C368.6,16,371.1,18.5,371.1,21.5z"/>
<path class="st0" d="M403.4,21.5v82.7H442c3,0,5.4,2.4,5.4,5.4v11.2c0,3-2.4,5.4-5.4,5.4h-55.3c-3,0-5.4-2.4-5.4-5.4V21.5
	c0-3,2.4-5.4,5.4-5.4H398C401,16,403.4,18.5,403.4,21.5z"/>
<path class="st0" d="M477.8,21.5v82.7h38.6c3,0,5.4,2.4,5.4,5.4v11.2c0,3-2.4,5.4-5.4,5.4h-55.3c-3,0-5.4-2.4-5.4-5.4V21.5
	c0-3,2.4-5.4,5.4-5.4h11.2C475.3,16,477.8,18.5,477.8,21.5z"/>
<path class="st0" d="M701.8,77V21.5c0-3,2.4-5.4,5.4-5.4h11.2c3,0,5.4,2.4,5.4,5.4v94.2c0,4.8-5.7,7.2-9.2,3.9l-57-54.3v55.6
	c0,3-2.4,5.4-5.4,5.4H641c-3,0-5.4-2.4-5.4-5.4V26.7c0-4.8,5.7-7.2,9.2-3.9L701.8,77z"/>
<path class="st0" d="M801,21.5v11.1c0,3-2.4,5.4-5.4,5.4H757v22.1h27.6c3,0,5.4,2.4,5.4,5.4v11.1c0,3-2.4,5.4-5.4,5.4H757v22h38.6
	c3,0,5.4,2.4,5.4,5.4v11.2c0,3-2.4,5.4-5.4,5.4H757h-16.7c-3,0-5.4-2.4-5.4-5.4V21.5c0-3,2.4-5.4,5.4-5.4h55.3
	C798.6,16,801,18.5,801,21.5z"/>
<path class="st0" d="M878.6,32.5c-10.8-10.8-25.1-16.2-40.2-16.2v0.1h-21.8c-3,0-5.4,2.4-5.4,5.4v99.1c0,3,2.4,5.4,5.4,5.4h21.8
	c15.1,0,29.4-5.4,40.2-16.1C898.3,90.5,898.3,52.2,878.6,32.5z M863.1,94.5c-6.5,7-15.2,9.8-24.6,9.8h-0.1h-5.2v-66h5.1
	c9,0,17.5,2.5,23.9,9c7.5,7.5,9.7,17.6,8.9,28.1C870.6,82.4,868,89.3,863.1,94.5z"/>
<path class="st0" d="M1.5,72.3L92,129.9c1.7,1.1,3.6-0.7,3.6-3.3v-0.4V108v-1.1l0,0c0-2.9-1.2-5.6-3.1-6.8l-11-7.1l-0.7-0.3V45.2
	l0.7-0.4l11-7c1.9-1.2,3.1-3.9,3.1-6.8l0,0v-1.2V11.6v-0.4c0-2.6-1.9-4.4-3.6-3.3L1.5,65.7C-0.5,67-0.5,71,1.5,72.3z M63.5,81.2
	L43.2,68.9l20.3-12.3V81.2z"/>
<g>
	<path class="st0" d="M998.5,74l-90,57c-1.7,1-3.5-0.7-3.5-3.3l0,0v-18.3v-1.1l0,0c0-2.7,1.1-5.2,2.9-6.3l50-31.2l-49.1-30.6
		c-2.3-1.4-3.7-4.6-3.7-8.2l0,0V13.6c0-2.6,1.9-4.3,3.5-3.3l90,57.1C1000.5,68.7,1000.5,72.8,998.5,74z"/>
</g>
<g>
	<g>
		<path class="st0" d="M581.1,21.1l45.7,101c0.8,1.9-0.6,4-2.6,4l0,0h-14.7h-0.9l0,0c-2.2,0-4.2-1.3-5-3.2l-25-56.1l-24.6,55
			c-1.1,2.6-3.7,4.2-6.6,4.2l0,0h-14.7c-2.1,0-3.5-2.1-2.6-4l45.8-101C576.8,18.9,580.1,18.9,581.1,21.1z"/>
	</g>
</g>
<g>
	<path class="st0" d="M166.2,4.3h11c2.6,0,4.4,2.7,3.4,5L127.2,136c-0.6,1.3-1.9,2.2-3.4,2.2h-13.7c-2.6,0-4.4-2.7-3.3-5.1l56-126.7
		C163.4,5.1,164.7,4.3,166.2,4.3z"/>
</g>
<path class="st0" d="M244.7,120.8L200.2,20c-0.8-1.9,0.5-3.9,2.6-3.9l0,0h14.3h0.9l0,0c2.1,0,4,1.3,4.9,3.2l24.3,56l23.9-55
	c1.1-2.5,3.6-4.2,6.4-4.2l0,0h14.3c2,0,3.4,2.1,2.6,3.9l-44.5,100.8C248.8,123,245.6,123,244.7,120.8z"/>
</svg>
